<mxfile host="app.diagrams.net" modified="2024-06-12T08:51:46.752Z" agent="Mozilla/5.0 (Windows NT 10.0; Win64; x64) AppleWebKit/537.36 (KHTML, like Gecko) Chrome/125.0.0.0 Safari/537.36 Edg/125.0.0.0" etag="A6gZIxO5kfK50VQHh3rn" version="24.5.3" type="device">
  <diagram name="Page-1" id="ouniAKUyINf8TPKX_Nbg">
    <mxGraphModel dx="786" dy="505" grid="1" gridSize="10" guides="1" tooltips="1" connect="1" arrows="1" fold="1" page="1" pageScale="1" pageWidth="850" pageHeight="1100" math="0" shadow="0">
      <root>
        <mxCell id="0" />
        <mxCell id="1" parent="0" />
        <mxCell id="porU6ANIRFBFhljNamiX-2" value="" style="whiteSpace=wrap;html=1;aspect=fixed;" vertex="1" parent="1">
          <mxGeometry x="40" y="40" width="640" height="640" as="geometry" />
        </mxCell>
        <mxCell id="porU6ANIRFBFhljNamiX-26" style="edgeStyle=orthogonalEdgeStyle;rounded=0;orthogonalLoop=1;jettySize=auto;html=1;entryX=1;entryY=0.5;entryDx=0;entryDy=0;" edge="1" parent="1" source="porU6ANIRFBFhljNamiX-4" target="porU6ANIRFBFhljNamiX-5">
          <mxGeometry relative="1" as="geometry" />
        </mxCell>
        <mxCell id="porU6ANIRFBFhljNamiX-27" style="edgeStyle=orthogonalEdgeStyle;rounded=0;orthogonalLoop=1;jettySize=auto;html=1;exitX=0.5;exitY=0;exitDx=0;exitDy=0;entryX=0;entryY=0.5;entryDx=0;entryDy=0;" edge="1" parent="1" source="porU6ANIRFBFhljNamiX-4" target="porU6ANIRFBFhljNamiX-12">
          <mxGeometry relative="1" as="geometry" />
        </mxCell>
        <mxCell id="porU6ANIRFBFhljNamiX-28" style="edgeStyle=orthogonalEdgeStyle;rounded=0;orthogonalLoop=1;jettySize=auto;html=1;exitX=1;exitY=0;exitDx=0;exitDy=0;entryX=0;entryY=0.5;entryDx=0;entryDy=0;" edge="1" parent="1" source="porU6ANIRFBFhljNamiX-4" target="porU6ANIRFBFhljNamiX-6">
          <mxGeometry relative="1" as="geometry" />
        </mxCell>
        <mxCell id="porU6ANIRFBFhljNamiX-29" style="edgeStyle=orthogonalEdgeStyle;rounded=0;orthogonalLoop=1;jettySize=auto;html=1;exitX=1;exitY=0.5;exitDx=0;exitDy=0;" edge="1" parent="1" source="porU6ANIRFBFhljNamiX-4" target="porU6ANIRFBFhljNamiX-11">
          <mxGeometry relative="1" as="geometry" />
        </mxCell>
        <mxCell id="porU6ANIRFBFhljNamiX-32" style="edgeStyle=orthogonalEdgeStyle;rounded=0;orthogonalLoop=1;jettySize=auto;html=1;exitX=1;exitY=1;exitDx=0;exitDy=0;entryX=0.5;entryY=0;entryDx=0;entryDy=0;" edge="1" parent="1" source="porU6ANIRFBFhljNamiX-4" target="porU6ANIRFBFhljNamiX-8">
          <mxGeometry relative="1" as="geometry" />
        </mxCell>
        <mxCell id="porU6ANIRFBFhljNamiX-33" style="edgeStyle=orthogonalEdgeStyle;rounded=0;orthogonalLoop=1;jettySize=auto;html=1;exitX=0.5;exitY=1;exitDx=0;exitDy=0;entryX=1;entryY=0.5;entryDx=0;entryDy=0;" edge="1" parent="1" source="porU6ANIRFBFhljNamiX-4" target="porU6ANIRFBFhljNamiX-13">
          <mxGeometry relative="1" as="geometry" />
        </mxCell>
        <mxCell id="porU6ANIRFBFhljNamiX-34" style="edgeStyle=orthogonalEdgeStyle;rounded=0;orthogonalLoop=1;jettySize=auto;html=1;exitX=0;exitY=1;exitDx=0;exitDy=0;entryX=1;entryY=0.5;entryDx=0;entryDy=0;" edge="1" parent="1" source="porU6ANIRFBFhljNamiX-4" target="porU6ANIRFBFhljNamiX-7">
          <mxGeometry relative="1" as="geometry" />
        </mxCell>
        <mxCell id="porU6ANIRFBFhljNamiX-4" value="" style="ellipse;whiteSpace=wrap;html=1;fillColor=#dae8fc;strokeColor=#6c8ebf;" vertex="1" parent="1">
          <mxGeometry x="275" y="350" width="170" height="110" as="geometry" />
        </mxCell>
        <mxCell id="porU6ANIRFBFhljNamiX-5" value="" style="rounded=1;whiteSpace=wrap;html=1;fillColor=#f5f5f5;fontColor=#333333;strokeColor=#666666;" vertex="1" parent="1">
          <mxGeometry x="110" y="190" width="120" height="60" as="geometry" />
        </mxCell>
        <mxCell id="porU6ANIRFBFhljNamiX-6" value="" style="rounded=1;whiteSpace=wrap;html=1;fillColor=#f5f5f5;fontColor=#333333;strokeColor=#666666;" vertex="1" parent="1">
          <mxGeometry x="470" y="180" width="120" height="60" as="geometry" />
        </mxCell>
        <mxCell id="porU6ANIRFBFhljNamiX-7" value="" style="rounded=1;whiteSpace=wrap;html=1;fillColor=#f5f5f5;fontColor=#333333;strokeColor=#666666;" vertex="1" parent="1">
          <mxGeometry x="80" y="450" width="130" height="60" as="geometry" />
        </mxCell>
        <mxCell id="porU6ANIRFBFhljNamiX-8" value="" style="rounded=1;whiteSpace=wrap;html=1;fillColor=#f5f5f5;fontColor=#333333;strokeColor=#666666;" vertex="1" parent="1">
          <mxGeometry x="390" y="500" width="120" height="60" as="geometry" />
        </mxCell>
        <mxCell id="porU6ANIRFBFhljNamiX-10" value="" style="rounded=1;whiteSpace=wrap;html=1;fillColor=#f5f5f5;fontColor=#333333;strokeColor=#666666;" vertex="1" parent="1">
          <mxGeometry x="530" y="390" width="140" height="60" as="geometry" />
        </mxCell>
        <mxCell id="porU6ANIRFBFhljNamiX-31" style="edgeStyle=orthogonalEdgeStyle;rounded=0;orthogonalLoop=1;jettySize=auto;html=1;exitX=0.5;exitY=1;exitDx=0;exitDy=0;entryX=0.5;entryY=0;entryDx=0;entryDy=0;" edge="1" parent="1" source="porU6ANIRFBFhljNamiX-11" target="porU6ANIRFBFhljNamiX-10">
          <mxGeometry relative="1" as="geometry" />
        </mxCell>
        <mxCell id="porU6ANIRFBFhljNamiX-11" value="" style="rounded=1;whiteSpace=wrap;html=1;fillColor=#f5f5f5;fontColor=#333333;strokeColor=#666666;" vertex="1" parent="1">
          <mxGeometry x="540" y="290" width="120" height="60" as="geometry" />
        </mxCell>
        <mxCell id="porU6ANIRFBFhljNamiX-12" value="" style="rounded=1;whiteSpace=wrap;html=1;fillColor=#f5f5f5;fontColor=#333333;strokeColor=#666666;" vertex="1" parent="1">
          <mxGeometry x="310" y="230" width="120" height="60" as="geometry" />
        </mxCell>
        <mxCell id="porU6ANIRFBFhljNamiX-13" value="" style="rounded=1;whiteSpace=wrap;html=1;fillColor=#f5f5f5;fontColor=#333333;strokeColor=#666666;" vertex="1" parent="1">
          <mxGeometry x="120" y="560" width="120" height="60" as="geometry" />
        </mxCell>
        <mxCell id="porU6ANIRFBFhljNamiX-14" value="&lt;font style=&quot;font-size: 18px;&quot;&gt;main.py&lt;/font&gt;" style="text;html=1;align=center;verticalAlign=middle;whiteSpace=wrap;rounded=0;" vertex="1" parent="1">
          <mxGeometry x="330" y="390" width="60" height="30" as="geometry" />
        </mxCell>
        <mxCell id="porU6ANIRFBFhljNamiX-15" value="analisis_avanzado.py" style="text;html=1;align=center;verticalAlign=middle;whiteSpace=wrap;rounded=0;" vertex="1" parent="1">
          <mxGeometry x="140" y="205" width="60" height="30" as="geometry" />
        </mxCell>
        <mxCell id="porU6ANIRFBFhljNamiX-16" value="audio.py" style="text;html=1;align=center;verticalAlign=middle;whiteSpace=wrap;rounded=0;" vertex="1" parent="1">
          <mxGeometry x="340" y="245" width="60" height="30" as="geometry" />
        </mxCell>
        <mxCell id="porU6ANIRFBFhljNamiX-17" value="chart_converter.py" style="text;html=1;align=center;verticalAlign=middle;whiteSpace=wrap;rounded=0;" vertex="1" parent="1">
          <mxGeometry x="500" y="195" width="60" height="30" as="geometry" />
        </mxCell>
        <mxCell id="porU6ANIRFBFhljNamiX-18" value="text_analysis.py" style="text;html=1;align=center;verticalAlign=middle;whiteSpace=wrap;rounded=0;" vertex="1" parent="1">
          <mxGeometry x="570" y="305" width="60" height="30" as="geometry" />
        </mxCell>
        <mxCell id="porU6ANIRFBFhljNamiX-19" value="palabras_malsonantes.py" style="text;html=1;align=center;verticalAlign=middle;whiteSpace=wrap;rounded=0;" vertex="1" parent="1">
          <mxGeometry x="570" y="405" width="60" height="30" as="geometry" />
        </mxCell>
        <mxCell id="porU6ANIRFBFhljNamiX-20" value="excel_exporter.py" style="text;html=1;align=center;verticalAlign=middle;whiteSpace=wrap;rounded=0;" vertex="1" parent="1">
          <mxGeometry x="115" y="465" width="60" height="30" as="geometry" />
        </mxCell>
        <mxCell id="porU6ANIRFBFhljNamiX-22" value="importar.py" style="text;html=1;align=center;verticalAlign=middle;whiteSpace=wrap;rounded=0;" vertex="1" parent="1">
          <mxGeometry x="150" y="575" width="60" height="30" as="geometry" />
        </mxCell>
        <mxCell id="porU6ANIRFBFhljNamiX-23" value="menu.py" style="text;html=1;align=center;verticalAlign=middle;whiteSpace=wrap;rounded=0;" vertex="1" parent="1">
          <mxGeometry x="420" y="515" width="60" height="30" as="geometry" />
        </mxCell>
        <mxCell id="porU6ANIRFBFhljNamiX-35" value="" style="rounded=1;whiteSpace=wrap;html=1;fillColor=#f5f5f5;fontColor=#333333;strokeColor=#666666;" vertex="1" parent="1">
          <mxGeometry x="110" y="100" width="120" height="60" as="geometry" />
        </mxCell>
        <mxCell id="porU6ANIRFBFhljNamiX-36" value="_init_.py" style="text;html=1;align=center;verticalAlign=middle;whiteSpace=wrap;rounded=0;" vertex="1" parent="1">
          <mxGeometry x="140" y="115" width="60" height="30" as="geometry" />
        </mxCell>
        <mxCell id="porU6ANIRFBFhljNamiX-37" value="&lt;b&gt;&lt;font style=&quot;font-size: 18px;&quot;&gt;DIAGRAMA BRAINLINGUA NLP&lt;/font&gt;&lt;/b&gt;" style="text;html=1;align=center;verticalAlign=middle;whiteSpace=wrap;rounded=0;" vertex="1" parent="1">
          <mxGeometry x="305" y="50" width="120" height="65" as="geometry" />
        </mxCell>
      </root>
    </mxGraphModel>
  </diagram>
</mxfile>
